<svg width="17" height="16" viewBox="0 0 17 16" fill="none" xmlns="http://www.w3.org/2000/svg">
<g clip-path="url(#clip0_414_5143)">
<circle cx="8.74998" cy="7.99967" r="6.66667" stroke="#141B34" stroke-width="1.5"/>
<path d="M6.75 9.91602C6.33579 9.91602 6 10.2518 6 10.666C6 11.0802 6.33579 11.416 6.75 11.416V9.91602ZM10.75 11.416C11.1642 11.416 11.5 11.0802 11.5 10.666C11.5 10.2518 11.1642 9.91602 10.75 9.91602V11.416ZM10.6401 7.9208C10.9176 7.61332 10.8933 7.13907 10.5859 6.86153C10.2784 6.58399 9.80412 6.60827 9.52659 6.91575L10.6401 7.9208ZM9.45711 8.11207L10.0139 8.6146L10.0139 8.6146L9.45711 8.11207ZM8.04289 8.11207L7.48615 8.61459L8.04289 8.11207ZM7.97341 6.91575C7.69588 6.60827 7.22162 6.58399 6.91414 6.86153C6.60666 7.13907 6.58238 7.61332 6.85992 7.9208L7.97341 6.91575ZM9.5 4.66602C9.5 4.2518 9.16421 3.91602 8.75 3.91602C8.33579 3.91602 8 4.2518 8 4.66602H9.5ZM6.75 11.416H10.75V9.91602H6.75V11.416ZM9.52659 6.91575L8.90036 7.60954L10.0139 8.6146L10.6401 7.9208L9.52659 6.91575ZM8.59964 7.60954L7.97341 6.91575L6.85992 7.9208L7.48615 8.61459L8.59964 7.60954ZM8.90036 7.60954C8.81515 7.70394 8.74909 7.77706 8.69119 7.83805C8.63289 7.89946 8.59602 7.93448 8.57205 7.95475C8.54799 7.97508 8.55461 7.96525 8.58642 7.95055C8.62539 7.93255 8.68297 7.91602 8.75 7.91602V9.41602C9.1082 9.41602 9.36979 9.24452 9.54039 9.10031C9.69756 8.96746 9.86182 8.78303 10.0139 8.6146L8.90036 7.60954ZM7.48615 8.61459C7.63818 8.78303 7.80244 8.96746 7.95961 9.10031C8.13021 9.24452 8.3918 9.41602 8.75 9.41602V7.91602C8.81703 7.91602 8.87461 7.93255 8.91358 7.95055C8.94539 7.96525 8.95201 7.97508 8.92795 7.95475C8.90398 7.93448 8.86711 7.89946 8.80881 7.83805C8.75091 7.77706 8.68485 7.70394 8.59964 7.60954L7.48615 8.61459ZM9.5 8.66602V4.66602H8V8.66602H9.5Z" fill="#141B34"/>
</g>
<defs>
<clipPath id="clip0_414_5143">
<rect width="16" height="16" fill="white" transform="translate(0.75)"/>
</clipPath>
</defs>
</svg>
