<svg width="48" height="50" viewBox="0 0 48 50" fill="none" xmlns="http://www.w3.org/2000/svg">
<path fill-rule="evenodd" clip-rule="evenodd" d="M23.6653 1.05533C23.4974 1.17797 23.4803 1.33448 23.4533 2.99235C23.4202 5.02564 23.4749 5.25124 24.0003 5.25124C24.5256 5.25124 24.5803 5.02564 24.5472 2.99235C24.5203 1.33448 24.5031 1.17797 24.3352 1.05533C24.2347 0.981921 24.084 0.921875 24.0003 0.921875C23.9165 0.921875 23.7658 0.981921 23.6653 1.05533ZM14.6074 2.82303C14.4052 3.02519 14.4851 3.3467 15.1113 4.85143C15.8574 6.64426 15.9258 6.75711 16.266 6.75711C16.5805 6.75711 16.7533 6.60398 16.7533 6.32521C16.7533 6.10949 15.6141 3.28844 15.3789 2.92185C15.229 2.68807 14.7976 2.63282 14.6074 2.82303ZM32.7314 2.82774C32.5518 2.96684 31.2473 6.05622 31.2473 6.34252C31.2472 6.66139 31.5813 6.90261 31.8779 6.79776C32.0897 6.72304 32.2282 6.46685 32.8162 5.06329C33.1956 4.1576 33.506 3.32768 33.506 3.21907C33.506 2.99677 33.2337 2.71009 33.0225 2.71009C32.9459 2.71009 32.8148 2.76308 32.7314 2.82774ZM7.05926 7.98062C6.95573 8.08415 6.87102 8.24349 6.87102 8.33478C6.87102 8.57572 9.5078 11.1806 9.75175 11.1806C10.032 11.1806 10.2935 10.8592 10.2273 10.5958C10.158 10.3194 7.61351 7.79239 7.40467 7.79239C7.31817 7.79239 7.16279 7.87709 7.05926 7.98062ZM39.133 9.08612C38.4149 9.79773 37.8029 10.4771 37.7732 10.5958C37.7068 10.8601 37.9689 11.1806 38.2512 11.1806C38.4826 11.1806 41.1295 8.58062 41.1295 8.35332C41.1295 8.11352 40.8479 7.79239 40.6375 7.79239C40.5081 7.79239 39.983 8.24396 39.133 9.08612ZM23.0951 10.842C22.5744 11.0845 22.1708 11.5349 21.9699 12.098C21.8799 12.3501 21.8426 13.034 21.8397 14.4875L21.8356 16.5239L22.242 16.5848C22.8085 16.6698 23.6998 17.1146 24.1092 17.5169C24.2986 17.7029 24.5735 18.1003 24.7202 18.4002C24.9526 18.8752 24.987 19.0541 24.9876 19.7923C24.9884 20.5304 24.9546 20.7083 24.725 21.1761C24.2552 22.1325 23.0777 22.9452 22.1614 22.9452H21.8356L21.837 23.9099C21.8385 24.9951 21.9198 25.2359 22.392 25.5541C22.6843 25.7511 22.8145 25.7687 23.9764 25.7687C25.4109 25.7687 25.781 25.6615 26.0514 25.1677C26.1972 24.9016 26.2144 24.3208 26.2383 18.8555C26.2557 14.8429 26.2309 12.6746 26.1637 12.3511C25.8755 10.9631 24.3969 10.2358 23.0951 10.842ZM17.6364 12.9125C16.717 13.3406 16.3871 14.0294 16.3809 15.5335L16.3768 16.5452H18.5885H20.8003V15.6716C20.8003 14.1279 20.4595 13.3792 19.5506 12.9264C18.923 12.6136 18.2882 12.609 17.6364 12.9125ZM28.4499 12.9264C28.1852 13.0583 27.8508 13.3204 27.7071 13.5089C27.2189 14.1489 27.2002 14.3798 27.2002 19.7687C27.2002 25.1617 27.1998 25.1561 27.7192 25.5646C27.9595 25.7536 28.0841 25.7687 29.412 25.7687C30.7399 25.7687 30.8645 25.7536 31.1047 25.5646C31.6258 25.1547 31.6241 25.1751 31.6196 19.6306C31.6164 15.6094 31.5886 14.4465 31.4894 14.1686C31.0403 12.9101 29.635 12.3358 28.4499 12.9264ZM34.0836 14.6035C33.6147 14.7732 33.0368 15.2989 32.8381 15.7364C32.6756 16.0942 32.6629 16.4363 32.6611 20.5264C32.6588 25.359 32.6561 25.3339 33.2206 25.6259C33.4291 25.7337 33.8216 25.7687 34.8237 25.7687C35.8257 25.7687 36.2183 25.7337 36.4268 25.6259C36.9906 25.3343 36.9884 25.3541 36.9874 20.5734L36.9865 16.2158L36.7646 15.7452C36.5002 15.1845 36.2399 14.9289 35.6707 14.6708C35.1982 14.4566 34.564 14.4297 34.0836 14.6035ZM1.99795 15.5624C1.78571 15.711 1.72755 16.0207 1.86976 16.2449C1.95004 16.3716 5.1886 17.7688 5.40177 17.7688C5.46709 17.7688 5.62219 17.6606 5.74643 17.5284C5.95583 17.3055 5.96214 17.2705 5.83339 17.046C5.72553 16.8581 5.31895 16.6492 4.01035 16.1099C3.08405 15.7282 2.2994 15.4158 2.26665 15.4158C2.2339 15.4158 2.11296 15.4818 1.99795 15.5624ZM44.0066 16.0696C42.1772 16.8503 42.1648 16.8578 42.1648 17.186C42.1648 17.5078 42.3184 17.6746 42.6146 17.6746C42.8775 17.6746 45.8062 16.4843 46.0471 16.2796C46.3762 15.9998 46.1265 15.406 45.6867 15.4228C45.5873 15.4266 44.8312 15.7177 44.0066 16.0696ZM13.3775 17.7738C12.4278 17.9656 11.6696 18.5664 11.2603 19.4514C11.0623 19.8796 11.0588 19.9819 11.0331 25.9941C11.0107 31.2007 11.0286 32.2282 11.1546 32.9587C11.3081 33.8494 11.7137 34.9068 12.2516 35.8187C12.6475 36.4899 13.8974 37.7602 14.6352 38.2413C15.7864 38.992 17.3898 39.5097 18.5636 39.5097C19.1825 39.5097 19.4827 39.6952 19.4827 40.0776C19.4827 40.5526 19.188 40.6609 18.2014 40.5486C17.7414 40.496 17.0585 40.3679 16.6839 40.2638C16.3092 40.1597 15.981 40.0744 15.9545 40.0744C15.928 40.0744 15.9062 42.1073 15.9062 44.592V49.1096H23.2944H30.6825V44.5449C30.6825 42.0344 30.6508 39.9813 30.6119 39.9825C30.5731 39.9837 30.2237 40.0708 29.8355 40.1761C29.4473 40.2815 28.739 40.3925 28.2617 40.4229C27.2888 40.4849 27.1061 40.414 27.1061 39.9741C27.1061 39.616 27.4147 39.4156 27.9659 39.4156C29.094 39.4156 30.6579 38.9325 31.7638 38.2424C33.5555 37.1242 34.7698 35.5108 35.3079 33.5333C35.4929 32.8533 35.5167 32.4909 35.5535 29.7922L35.5944 26.8039H34.5261C33.283 26.8039 32.9455 26.7262 32.4461 26.3249L32.0805 26.0311L31.8757 26.2234C31.3748 26.6936 30.9183 26.7997 29.3854 26.8019C27.8244 26.8041 27.4706 26.7255 26.9959 26.2709L26.7445 26.03L26.4261 26.2729C25.8102 26.7427 25.5262 26.8041 23.9797 26.8019C22.736 26.8001 22.4841 26.7738 22.1179 26.6078C21.14 26.1645 20.8684 25.65 20.8177 24.1452L20.7804 23.0393H18.814H16.8474V25.1551V27.271L17.0592 27.3139C17.1757 27.3375 17.4597 27.3826 17.6905 27.414C19.3217 27.6365 21.2335 28.7777 22.3364 30.1871L22.8445 30.8366L23.3518 30.3175C24.6387 29.0008 26.4993 28.1664 28.2955 28.1005C28.9051 28.0781 29.0217 28.0998 29.137 28.2572C29.3041 28.4853 29.307 28.6948 29.1461 28.9149C29.0506 29.0455 28.8214 29.1039 28.1664 29.1644C26.4421 29.3235 24.8131 30.1369 23.7674 31.3609C23.3329 31.8695 23.3309 31.8751 23.4773 32.1584C23.7174 32.6226 23.9988 33.9562 23.9996 34.6325C24.0003 35.3256 23.8699 35.5568 23.4781 35.5568C23.1481 35.5568 22.9953 35.2352 22.9303 34.4043C22.8258 33.0669 22.2131 31.6536 21.288 30.6157C20.1334 29.3203 18.2509 28.4039 16.7447 28.4039C16.4316 28.4039 16.1487 28.3466 16.0213 28.2574C15.8128 28.1114 15.8121 28.1013 15.8121 25.204C15.8121 22.3067 15.8128 22.2965 16.0213 22.1505C16.2001 22.0253 16.6714 22.004 19.2714 22.004C22.5516 22.004 22.6288 21.9939 23.2279 21.4888C24.1939 20.6743 24.1758 19.2025 23.1892 18.3363C22.4738 17.7082 22.5983 17.7233 17.9768 17.7063C15.6733 17.6977 13.6036 17.7281 13.3775 17.7738ZM0.11345 24.564C-0.0737479 24.7512 -0.0207602 25.1784 0.209731 25.3398C0.380741 25.4596 0.736973 25.4863 2.16519 25.4863C3.59341 25.4863 3.94964 25.4596 4.12065 25.3398C4.35115 25.1784 4.40413 24.7512 4.21694 24.564C4.05722 24.4043 0.273166 24.4043 0.11345 24.564ZM43.7173 24.6736C43.5485 24.9314 43.6479 25.3273 43.9064 25.4265C43.9922 25.4594 44.8543 25.4863 45.822 25.4863C47.773 25.4863 48 25.4289 48 24.9351C48 24.4686 47.9207 24.451 45.8187 24.451C43.8665 24.451 43.863 24.4514 43.7173 24.6736ZM3.60922 32.8137C2.7729 33.1629 2.02119 33.5046 1.93865 33.573C1.64783 33.8144 1.87324 34.4274 2.25282 34.4274C2.4082 34.4274 5.56365 33.124 5.7181 32.996C5.86774 32.8719 5.87066 32.4294 5.7228 32.2815C5.51895 32.0777 5.14926 32.1708 3.60922 32.8137ZM42.2032 32.4039C41.9267 32.8257 42.1597 33.0051 43.9553 33.7532C44.8453 34.1241 45.647 34.4274 45.7369 34.4274C45.9505 34.4274 46.2118 34.1337 46.2118 33.8934C46.2118 33.789 46.1376 33.6412 46.0471 33.5649C45.8007 33.3574 42.8566 32.1686 42.5891 32.1686C42.4457 32.1686 42.2985 32.2583 42.2032 32.4039Z" fill="#FF9A2F"/>
</svg>
