<svg width="48" height="48" viewBox="0 0 48 48" fill="none" xmlns="http://www.w3.org/2000/svg">
<path fill-rule="evenodd" clip-rule="evenodd" d="M23.5642 1.01411C22.9482 1.09644 22.181 1.45346 21.702 1.88053L21.3269 2.21503L22.6632 3.55691L23.9996 4.89869L25.3359 3.55747L26.6723 2.21616L26.2972 1.88559C25.832 1.47568 24.9199 1.03915 24.4216 0.988037C24.2153 0.966936 23.8295 0.978659 23.5642 1.01411ZM16.2093 3.38661C15.2502 3.64525 14.5116 4.279 14.0686 5.22344C13.8615 5.66495 13.825 5.87108 13.8272 6.58754C13.8293 7.32192 13.8636 7.4986 14.0908 7.94733C14.2344 8.23101 14.6342 8.74989 14.9791 9.10034L15.6064 9.73756L15.0054 9.42856C14.463 9.14966 14.3258 9.11956 13.5987 9.11956C12.9242 9.11956 12.7073 9.15979 12.266 9.36667C11.5526 9.70127 11.055 10.1729 10.6736 10.8762C10.3745 11.4276 10.3548 11.5192 10.3553 12.3549C10.3557 13.1548 10.3833 13.2984 10.6262 13.7607C10.775 14.0441 11.1715 14.5603 11.5072 14.9081L12.1177 15.5405L11.568 15.2427C10.8093 14.8318 9.77829 14.768 8.94816 15.0807C8.17739 15.3709 7.32401 16.2194 7.04089 16.9771C6.55278 18.2834 6.87425 19.5176 8.00878 20.6928L8.61553 21.3212L7.96996 21.0007C7.40804 20.7218 7.23342 20.6804 6.62021 20.6804C5.74094 20.6804 5.02972 20.9772 4.36877 21.6202C3.68081 22.2893 3.43727 22.8338 3.38738 23.8143C3.34856 24.5771 3.36497 24.6705 3.64171 25.2618C3.89801 25.8095 4.19706 26.1563 5.8802 27.8573C6.94862 28.9373 8.04535 29.9652 8.31731 30.1417C8.58927 30.3183 9.08461 30.5299 9.41799 30.6123C11.6608 31.1657 13.8986 28.8605 13.2664 26.648C13.1793 26.343 13.0016 25.9305 12.8718 25.7312C12.742 25.5319 12.6712 25.3845 12.7144 25.4035C12.7576 25.4226 13.0252 25.5643 13.3089 25.7184C13.7785 25.9737 13.9043 25.9988 14.7155 25.9992C15.5513 25.9997 15.6428 25.98 16.1942 25.6809C17.9395 24.7345 18.533 22.5871 17.4786 21.0333C17.2629 20.7154 17.2951 20.5601 17.5203 20.8315C17.5799 20.9033 17.8488 21.0593 18.1179 21.1783C18.845 21.4997 19.9171 21.4876 20.6457 21.1498C21.9997 20.5219 22.8535 18.9805 22.5969 17.6273C22.5016 17.1248 22.2166 16.4778 21.9489 16.1566C21.7971 15.9744 21.7982 15.9743 22.0771 16.1519C22.8592 16.6501 23.0827 16.7156 23.9996 16.7156C24.8365 16.7156 24.9265 16.6961 25.4837 16.394C26.171 16.0213 26.6411 15.5212 26.9888 14.7932C27.1947 14.3616 27.2349 14.1472 27.2349 13.4803C27.2349 12.0967 27.2592 12.1288 22.9774 7.82551C20.9349 5.7727 19.0735 3.97075 18.8408 3.82108C18.3725 3.51987 17.4817 3.25494 16.97 3.26469C16.7874 3.26826 16.4451 3.32312 16.2093 3.38661ZM30.2302 3.34075C29.4907 3.53206 28.9806 3.90576 27.541 5.31131C26.728 6.10505 26.0627 6.7978 26.0627 6.85069C26.0627 6.90358 26.7307 7.62567 27.5471 8.45542C28.8692 9.79908 29.0751 10.0519 29.43 10.7682C29.9842 11.8864 30.1828 13.0403 30.0177 14.1819C29.6561 16.6832 28.0921 18.6168 25.8778 19.3001L25.3594 19.4601L25.1101 20.1322C24.7665 21.0586 24.3349 21.7378 23.6717 22.396C22.8689 23.1928 22.2812 23.5656 21.2516 23.931L20.7074 24.1241L20.4901 24.7483C20.186 25.6217 19.6962 26.3873 18.9934 27.0879C18.2884 27.7907 17.6086 28.2222 16.7176 28.5325L16.0753 28.7562L15.8841 29.3004C15.2254 31.1754 13.85 32.5484 11.996 33.1817C11.1585 33.4677 9.47238 33.5389 8.6175 33.3242C7.29306 32.9917 6.7423 32.6249 5.03047 30.9354L3.45725 29.3827L1.90578 30.9265C1.05239 31.7757 0.272814 32.627 0.173315 32.8183C-0.0468767 33.2415 -0.0571924 33.6465 0.141993 34.0459C0.322516 34.4079 13.4295 47.5673 13.8116 47.7701C14.1322 47.9403 14.8002 47.9563 15.1056 47.8011C15.2263 47.7397 16.5067 46.5173 17.9509 45.0843L20.5767 42.479L21.6551 42.4229C24.9848 42.2497 28.3859 40.9113 31.1203 38.6982C31.6138 38.2988 34.7428 35.236 38.0736 31.892C43.7301 26.2131 44.1467 25.7726 44.391 25.2135C44.627 24.6735 44.6486 24.5357 44.6116 23.8069C44.563 22.8489 44.3717 22.4122 43.6801 21.681C43.0384 21.0024 42.2801 20.67 41.3741 20.67C40.7883 20.67 40.6061 20.7143 40.0396 20.9956L39.3837 21.3212L39.9904 20.6928C41.1249 19.5176 41.4464 18.2834 40.9583 16.9771C40.6752 16.2194 39.8218 15.3709 39.051 15.0807C38.2209 14.768 37.1899 14.8318 36.4312 15.2427L35.8815 15.5405L36.492 14.9081C36.8277 14.5603 37.2242 14.0441 37.373 13.7607C37.6163 13.2975 37.6433 13.1563 37.6425 12.3549C37.6416 11.6126 37.6051 11.3903 37.423 11.0218C37.0956 10.3587 36.5547 9.79992 35.8927 9.44094C35.3412 9.14197 35.2403 9.11956 34.4475 9.11956C33.6704 9.11956 33.5433 9.14638 33.0067 9.42312L32.4182 9.72659L33.0651 9.04548C33.986 8.07618 34.1714 7.65681 34.1727 6.54066C34.1735 5.74476 34.1456 5.5964 33.9105 5.14917C33.338 4.0604 32.2791 3.35069 31.1465 3.29658C30.8004 3.28007 30.3881 3.29996 30.2302 3.34075ZM39.1914 34.7306C36.2774 37.65 33.5134 40.3588 33.0492 40.7502C32.0621 41.5823 30.5895 42.5617 29.4078 43.172L28.5707 43.6043L30.5286 45.5675C31.6055 46.6471 32.6238 47.6165 32.7916 47.7216C33.1577 47.9508 33.8048 47.9733 34.1876 47.7701C34.5696 47.5673 47.6767 34.4079 47.8572 34.0459C48.0477 33.6638 48.0476 33.2459 47.8569 32.8643C47.7246 32.5994 44.6609 29.4226 44.5378 29.4226C44.5113 29.4226 42.1054 31.8112 39.1914 34.7306Z" fill="#FF9A2F"/>
</svg>
