<svg width="22" height="22" viewBox="0 0 22 22" fill="none" xmlns="http://www.w3.org/2000/svg">
<path fill-rule="evenodd" clip-rule="evenodd" d="M11.0572 0.617188H11.0572C13.2479 0.617174 14.9686 0.617165 16.312 0.797781C17.6886 0.982868 18.7809 1.3699 19.6391 2.2281C20.4973 3.0863 20.8843 4.17855 21.0694 5.55521C21.25 6.89862 21.25 8.61929 21.25 10.81V10.81V10.9244V10.9244C21.25 13.1151 21.25 14.8358 21.0694 16.1792C20.8843 17.5558 20.4973 18.6481 19.6391 19.5063C18.7809 20.3645 17.6886 20.7515 16.312 20.9366C14.9686 21.1172 13.2479 21.1172 11.0572 21.1172H11.0572H10.9428H10.9428C8.7521 21.1172 7.03144 21.1172 5.68802 20.9366C4.31137 20.7515 3.21911 20.3645 2.36091 19.5063C1.50272 18.6481 1.11568 17.5558 0.930594 16.1792C0.749976 14.8357 0.749987 13.1151 0.75 10.9244V10.81C0.749987 8.61931 0.749976 6.89863 0.930594 5.55521C1.11568 4.17855 1.50272 3.0863 2.36091 2.2281C3.21911 1.3699 4.31137 0.982868 5.68802 0.797781C7.03143 0.617165 8.7521 0.617174 10.9428 0.617188H10.9428H11.0572ZM15.5 10.8672C15.5 13.3525 13.4853 15.3672 11 15.3672C8.51472 15.3672 6.5 13.3525 6.5 10.8672C6.5 8.38191 8.51472 6.36719 11 6.36719C13.4853 6.36719 15.5 8.38191 15.5 10.8672ZM16.5123 6.36719C17.0621 6.36719 17.5078 5.91947 17.5078 5.36719C17.5078 4.8149 17.0621 4.36719 16.5123 4.36719H16.5033C15.9535 4.36719 15.5078 4.8149 15.5078 5.36719C15.5078 5.91947 15.9535 6.36719 16.5033 6.36719H16.5123Z" fill="#F9FAFB"/>
</svg>
