<svg width="13" height="13" viewBox="0 0 13 13" fill="none" xmlns="http://www.w3.org/2000/svg">
<path d="M6.50002 1.59668C8.15002 1.59668 8.37502 1.59668 9.05002 1.59668C9.65002 1.59668 9.95002 1.74668 10.175 1.82168C10.475 1.97168 10.7 2.04668 10.925 2.27168C11.15 2.49668 11.3 2.72168 11.375 3.02168C11.45 3.24668 11.525 3.54668 11.6 4.14668C11.6 4.82168 11.6 4.97168 11.6 6.69668C11.6 8.42168 11.6 8.57168 11.6 9.24668C11.6 9.84668 11.45 10.1467 11.375 10.3717C11.225 10.6717 11.15 10.8967 10.925 11.1217C10.7 11.3467 10.475 11.4967 10.175 11.5717C9.95002 11.6467 9.65002 11.7217 9.05002 11.7967C8.37502 11.7967 8.22502 11.7967 6.50002 11.7967C4.77502 11.7967 4.62502 11.7967 3.95002 11.7967C3.35002 11.7967 3.05002 11.6467 2.82502 11.5717C2.52502 11.4217 2.30002 11.3467 2.07502 11.1217C1.85002 10.8967 1.70002 10.6717 1.62502 10.3717C1.55002 10.1467 1.47502 9.84668 1.40002 9.24668C1.40002 8.57168 1.40002 8.42168 1.40002 6.69668C1.40002 4.97168 1.40002 4.82168 1.40002 4.14668C1.40002 3.54668 1.55002 3.24668 1.62502 3.02168C1.77502 2.72168 1.85002 2.49668 2.07502 2.27168C2.30002 2.04668 2.52502 1.89668 2.82502 1.82168C3.05002 1.74668 3.35002 1.67168 3.95002 1.59668C4.62502 1.59668 4.85002 1.59668 6.50002 1.59668ZM6.50002 0.47168C4.77502 0.47168 4.62502 0.47168 3.95002 0.47168C3.27502 0.47168 2.82502 0.62168 2.45002 0.77168C2.07502 0.92168 1.70002 1.14668 1.32502 1.52168C0.950025 1.89668 0.800025 2.19668 0.575025 2.64668C0.425025 3.02168 0.350024 3.47168 0.275024 4.14668C0.275024 4.82168 0.275024 5.04668 0.275024 6.69668C0.275024 8.42168 0.275024 8.57168 0.275024 9.24668C0.275024 9.92168 0.425025 10.3717 0.575025 10.7467C0.725025 11.1217 0.950025 11.4967 1.32502 11.8717C1.70002 12.2467 2.00002 12.3967 2.45002 12.6217C2.82502 12.7717 3.27502 12.8467 3.95002 12.9217C4.62502 12.9217 4.85002 12.9217 6.50002 12.9217C8.15002 12.9217 8.37502 12.9217 9.05002 12.9217C9.72502 12.9217 10.175 12.7717 10.55 12.6217C10.925 12.4717 11.3 12.2467 11.675 11.8717C12.05 11.4967 12.2 11.1967 12.425 10.7467C12.575 10.3717 12.65 9.92168 12.725 9.24668C12.725 8.57168 12.725 8.34668 12.725 6.69668C12.725 5.04668 12.725 4.82168 12.725 4.14668C12.725 3.47168 12.575 3.02168 12.425 2.64668C12.275 2.27168 12.05 1.89668 11.675 1.52168C11.3 1.14668 11 0.99668 10.55 0.77168C10.175 0.62168 9.72502 0.54668 9.05002 0.47168C8.37502 0.47168 8.22502 0.47168 6.50002 0.47168Z" fill="white"/>
<path d="M6.50002 3.47168C4.70002 3.47168 3.27502 4.89668 3.27502 6.69668C3.27502 8.49668 4.70002 9.92168 6.50002 9.92168C8.30002 9.92168 9.72502 8.49668 9.72502 6.69668C9.72502 4.89668 8.30002 3.47168 6.50002 3.47168ZM6.50002 8.79668C5.37502 8.79668 4.40002 7.89668 4.40002 6.69668C4.40002 5.57168 5.30002 4.59668 6.50002 4.59668C7.62502 4.59668 8.60002 5.49668 8.60002 6.69668C8.60002 7.82168 7.62502 8.79668 6.50002 8.79668Z" fill="white"/>
<path d="M9.80002 4.14668C10.2142 4.14668 10.55 3.81089 10.55 3.39668C10.55 2.98247 10.2142 2.64668 9.80002 2.64668C9.38581 2.64668 9.05002 2.98247 9.05002 3.39668C9.05002 3.81089 9.38581 4.14668 9.80002 4.14668Z" fill="white"/>
</svg>
