<svg width="48" height="49" viewBox="0 0 48 49" fill="none" xmlns="http://www.w3.org/2000/svg">
<path fill-rule="evenodd" clip-rule="evenodd" d="M22.9058 1.03489C20.8499 1.53357 19.3092 3.4854 19.3092 5.59113C19.3092 8.12238 21.4673 10.2805 23.9986 10.2805C26.5298 10.2805 28.688 8.12238 28.688 5.59113C28.688 3.02227 26.4989 0.871234 23.9237 0.909687C23.6295 0.914095 23.1716 0.970368 22.9058 1.03489ZM1.49747 10.6292C0.931453 10.829 0.333459 11.4485 0.13791 12.0372C-0.00577356 12.4698 -0.0165592 13.2618 0.0138282 21.1731C0.0504994 30.7062 0.018799 30.1635 0.649056 32.0592C1.16846 33.6216 2.09621 35.194 3.22298 36.4216C3.56503 36.7942 4.44382 37.5781 5.17594 38.1635C6.79407 39.4573 7.28711 39.9923 7.77594 40.9841C8.34598 42.1406 8.42626 42.6877 8.42814 45.4315C8.42964 47.6217 8.44418 47.8317 8.61853 48.1735C8.74008 48.4118 8.93929 48.611 9.1776 48.7325C9.537 48.9158 9.7196 48.9213 15.4639 48.9213C21.2081 48.9213 21.3907 48.9158 21.7501 48.7325C21.9884 48.611 22.1876 48.4118 22.3092 48.1735C22.4932 47.8127 22.498 47.6332 22.498 41.0591C22.498 33.772 22.4829 33.5058 21.9859 32.0484C21.4259 30.4066 20.309 28.8766 18.9048 27.8281C18.1742 27.2826 13.0639 24.349 12.4669 24.1325C12.1481 24.0168 11.6201 23.9282 11.1027 23.9035C10.3905 23.8695 10.1457 23.8994 9.53615 24.0946C7.84946 24.6349 6.552 26.0874 6.55491 27.4322C6.55603 27.9836 6.89311 28.7175 7.31422 29.0858C7.49073 29.2401 8.7171 29.9899 10.0395 30.7519C11.5906 31.6457 12.5032 32.228 12.6115 32.3932C12.8679 32.7844 12.8899 33.5205 12.6563 33.8926C12.3541 34.3737 11.9368 34.5884 11.3841 34.547C10.9807 34.5167 10.5809 34.3179 8.52352 33.1251C5.73726 31.5097 5.39418 31.2723 4.88838 30.61C4.04194 29.502 3.68705 28.3757 3.77239 27.0686C3.83842 26.0576 4.11172 25.2606 4.68805 24.399C5.16731 23.6825 6.26191 22.5804 6.73976 22.3333L7.02291 22.1869V18.4424C7.02291 14.3951 6.99412 14.0835 6.52902 13.0942C5.65641 11.2383 3.19156 10.0308 1.49747 10.6292ZM44.5709 10.6013C42.8687 11.0142 41.4342 12.4924 41.0779 14.2008C41.0124 14.5154 40.9743 16.0662 40.9743 18.4246V22.1512L41.266 22.3235C41.7898 22.6329 42.8446 23.7045 43.3091 24.399C44.6306 26.3747 44.5551 28.7166 43.1088 30.61C42.603 31.2723 42.2599 31.5097 39.4737 33.1251C37.4163 34.3179 37.0165 34.5167 36.6131 34.547C36.0604 34.5884 35.6431 34.3737 35.3409 33.8926C35.1074 33.5208 35.1292 32.7845 35.3851 32.394C35.4927 32.23 36.4088 31.6459 37.9551 30.7557C39.2767 29.9948 40.5034 29.2447 40.681 29.0887C40.8586 28.9327 41.1024 28.5937 41.2227 28.3354C41.6338 27.4527 41.4625 26.5398 40.7121 25.6128C40.1223 24.884 39.4028 24.4008 38.4643 24.103C37.8005 23.8923 37.5718 23.8633 36.8699 23.901C36.3908 23.9266 35.8361 24.0227 35.5345 24.1321C34.933 24.3506 29.8122 27.2894 29.0827 27.835C27.4957 29.0217 26.2843 30.8333 25.763 32.7998C25.5575 33.5747 25.5539 33.6967 25.5229 40.6876C25.4919 47.6976 25.4939 47.7931 25.6842 48.166C25.8095 48.4117 26.0062 48.6097 26.2471 48.7325C26.6065 48.9158 26.7891 48.9213 32.5333 48.9213C38.2776 48.9213 38.4602 48.9158 38.8196 48.7325C39.0579 48.611 39.2571 48.4118 39.3787 48.1735C39.553 47.8317 39.5675 47.6217 39.569 45.4315C39.5709 42.6852 39.651 42.141 40.2241 40.9784C40.7067 39.9991 41.2555 39.4038 42.7919 38.1932C45.5504 36.0193 46.9334 33.9452 47.7081 30.8202L47.9522 29.8354L47.9845 21.1731C48.0208 11.3944 48.0561 11.9177 47.3096 11.1712C46.6568 10.5184 45.7179 10.323 44.5709 10.6013ZM18.2153 11.4887C17.2698 12.2796 16.5316 13.261 15.9327 14.5236C15.3835 15.6813 15.1789 16.5808 15.1164 18.1136C15.0667 19.3336 15.0774 19.457 15.2646 19.824C15.399 20.0874 15.5901 20.2827 15.8366 20.4085C16.1987 20.5932 16.3744 20.5973 23.9986 20.5973C31.6227 20.5973 31.7985 20.5932 32.1606 20.4085C32.4071 20.2827 32.5982 20.0874 32.7326 19.824C32.9198 19.457 32.9305 19.3336 32.8808 18.1136C32.8009 16.1564 32.3347 14.6908 31.3132 13.1868C30.8874 12.5598 29.8409 11.4508 29.4167 11.177C29.1614 11.0122 29.1593 11.0128 28.7474 11.373C27.8614 12.1474 26.663 12.704 25.3268 12.9616C23.2467 13.3625 21.0037 12.7895 19.3339 11.4305C19.0638 11.2107 18.8249 11.0309 18.8029 11.0309C18.7809 11.0309 18.5165 11.2369 18.2153 11.4887Z" fill="#FF9A2F"/>
</svg>
