<svg width="20" height="20" viewBox="0 0 20 20" fill="none" xmlns="http://www.w3.org/2000/svg">
<path d="M4.5 7.5H0V20H4.5V7.5Z" fill="#F9FAFB"/>
<path d="M4.5 2.25C4.5 3.49264 3.49264 4.5 2.25 4.5C1.00736 4.5 0 3.49264 0 2.25C0 1.00736 1.00736 0 2.25 0C3.49264 0 4.5 1.00736 4.5 2.25Z" fill="#F9FAFB"/>
<path d="M12.0001 7.5H7.5V20H12.0001V13.7502C12.0001 12.7837 12.7835 12.0002 13.75 12.0002C14.7165 12.0002 15.5 12.7837 15.5 13.7502V20H19.9987L20.0001 12.0002C20.0001 9.51496 17.6364 7.50024 15.2968 7.50024C13.9649 7.50024 12.7767 8.15309 12.0001 9.17395V7.5Z" fill="#F9FAFB"/>
</svg>
