<svg width="13" height="13" viewBox="0 0 13 13" fill="none" xmlns="http://www.w3.org/2000/svg">
<path d="M3.2 12.6963H0.649998V4.67129H3.2V12.6963ZM1.925 3.54629C1.1 3.54629 0.5 2.94629 0.5 2.12129C0.5 1.29629 1.175 0.696289 1.925 0.696289C2.75 0.696289 3.35 1.29629 3.35 2.12129C3.35 2.94629 2.75 3.54629 1.925 3.54629ZM12.5 12.6963H9.95V8.34629C9.95 7.07129 9.425 6.69629 8.675 6.69629C7.925 6.69629 7.175 7.29629 7.175 8.42129V12.6963H4.625V4.67129H7.025V5.79629C7.25 5.27129 8.15 4.44629 9.425 4.44629C10.85 4.44629 12.35 5.27129 12.35 7.74629V12.6963H12.5Z" fill="white"/>
</svg>
