<svg width="12" height="18" viewBox="0 0 12 18" fill="none" xmlns="http://www.w3.org/2000/svg">
<path fill-rule="evenodd" clip-rule="evenodd" d="M6.00039 0.9375C3.71223 0.9375 1.53906 2.3287 0.631184 4.51181C-0.21402 6.54422 0.245464 8.27623 1.19455 9.75171C1.96915 10.9559 3.09934 12.0308 4.10766 12.9899C4.29928 13.1721 4.48649 13.3502 4.66603 13.5241L4.66725 13.5253C5.02525 13.8701 5.50331 14.0625 6.00039 14.0625C6.49748 14.0625 6.97557 13.8701 7.33357 13.5253C7.5034 13.3617 7.67993 13.1944 7.86043 13.0234C8.87953 12.0576 10.0253 10.9719 10.808 9.75241C11.7559 8.27547 12.2138 6.54171 11.3696 4.51181C10.4617 2.3287 8.28856 0.9375 6.00039 0.9375ZM6 4.5C4.75736 4.5 3.75 5.50736 3.75 6.75C3.75 7.99264 4.75736 9 6 9C7.24264 9 8.25 7.99264 8.25 6.75C8.25 5.50736 7.24264 4.5 6 4.5Z" fill="#F9FAFB"/>
<path d="M1.5 14.0625C1.8909 14.0625 2.21195 14.3616 2.24685 14.7434C2.25983 14.7576 2.28194 14.779 2.31786 14.8073C2.45164 14.9127 2.6917 15.0405 3.05519 15.1616C3.77434 15.4014 4.81554 15.5625 6 15.5625C7.18446 15.5625 8.22566 15.4014 8.94481 15.1616C9.3083 15.0405 9.54836 14.9127 9.68214 14.8073C9.71806 14.779 9.74017 14.7576 9.75315 14.7434C9.78805 14.3616 10.1091 14.0625 10.5 14.0625C10.9142 14.0625 11.25 14.3983 11.25 14.8125C11.25 15.3479 10.9238 15.7386 10.6106 15.9854C10.289 16.2389 9.87 16.4344 9.41915 16.5847C8.50962 16.8878 7.30082 17.0625 6 17.0625C4.69918 17.0625 3.49038 16.8878 2.58085 16.5847C2.13 16.4344 1.71105 16.2389 1.3894 15.9854C1.07621 15.7386 0.75 15.3479 0.75 14.8125C0.75 14.3983 1.08579 14.0625 1.5 14.0625Z" fill="#F9FAFB"/>
</svg>
