<svg width="48" height="48" viewBox="0 0 48 48" fill="none" xmlns="http://www.w3.org/2000/svg">
<path fill-rule="evenodd" clip-rule="evenodd" d="M15.9753 0.245114C14.7879 0.598671 14.0941 1.02003 13.1255 1.97584C12.1143 2.97364 11.4775 4.12278 11.1964 5.45679C10.8615 7.04624 11.2047 8.95402 12.0922 10.4361C12.3709 10.9016 13.9892 12.5979 17.9364 16.5622C20.9387 19.5774 23.533 22.1016 23.7017 22.1714C23.9383 22.2694 24.0785 22.2693 24.3163 22.1708C24.4857 22.1006 27.0763 19.5765 30.0732 16.5615C33.9756 12.6357 35.6248 10.9048 35.8838 10.4631C38.2034 6.50793 36.3658 1.64713 32.0412 0.298452C30.8424 -0.0753477 29.1 -0.0522129 27.9294 0.352969C26.7185 0.772183 26.23 1.09082 25.0523 2.23L24.0078 3.24033L22.9092 2.17152C21.243 0.550259 19.9362 -0.0109769 17.8539 0.000162137C17.0656 0.00433927 16.5641 0.0696738 15.9753 0.245114ZM3.10497 10.475C2.30157 10.7413 1.86158 11.0243 1.27346 11.653C0.70044 12.2656 0.397009 12.8234 0.176584 13.6697C-0.0570141 14.5664 -0.0596918 33.195 0.173585 34.2958C0.493297 35.8049 0.848247 36.2849 4.00134 39.4726L6.87125 42.3741V44.9132V47.4521L7.13419 47.715L7.39703 47.9779H13.726H20.055L20.3179 47.715L20.5808 47.4521V40.8715C20.5808 34.6201 20.5702 34.2566 20.3692 33.6057C20.2528 33.2287 20.0144 32.7055 19.8395 32.443C19.6645 32.1804 17.7716 30.2253 15.6331 28.0983C11.3994 23.8877 11.253 23.7722 9.84516 23.5391C7.03887 23.074 4.44005 25.7922 5.03567 28.5694C5.29443 29.776 5.44845 29.9692 9.02365 33.5721C11.236 35.8018 12.4503 37.1028 12.4981 37.2948C12.6334 37.8392 12.0112 38.4419 11.4573 38.3029C11.32 38.2684 9.66286 36.6839 7.7748 34.7816C4.74669 31.7308 4.29449 31.2314 3.94093 30.5471C3.23157 29.1744 3.06598 27.7662 3.4415 26.298C3.73486 25.151 4.11712 24.4891 5.00664 23.5876C5.85567 22.7271 6.88207 22.1529 7.97433 21.9272L8.5963 21.7988L8.56385 17.6652L8.53139 13.5315L8.13135 12.7225C7.65205 11.753 7.02655 11.1378 6.06035 10.6857C5.15327 10.2612 3.99866 10.179 3.10497 10.475ZM42.7109 10.3895C42.0343 10.5585 41.0689 11.1294 40.6002 11.638C40.3598 11.8989 40.0104 12.4344 39.824 12.8278L39.485 13.5433L39.4526 17.6711L39.4201 21.7988L40.0421 21.9272C41.1344 22.1529 42.1608 22.7271 43.0098 23.5876C43.8993 24.4891 44.2816 25.151 44.5749 26.298C44.9505 27.7662 44.7849 29.1744 44.0755 30.5471C43.722 31.2314 43.2697 31.7308 40.2416 34.7816C38.3536 36.6839 36.6964 38.2684 36.5591 38.3029C36.0053 38.4419 35.383 37.8392 35.5184 37.2948C35.5661 37.1028 36.7804 35.8018 38.9928 33.5721C42.6527 29.8838 42.7737 29.728 43.0001 28.4122C43.475 25.6521 40.8811 23.0591 38.1298 23.5438C36.7496 23.7869 36.5959 23.9087 32.3834 28.0983C30.2448 30.2253 28.3519 32.1804 28.1769 32.443C28.002 32.7055 27.7637 33.2287 27.6473 33.6057C27.4462 34.2566 27.4356 34.6201 27.4356 40.8715V47.4521L27.6986 47.715L27.9614 47.9779H34.2904H40.6194L40.8822 47.715L41.1452 47.4521V44.9132V42.3741L44.0221 39.4726C46.7766 36.6944 46.9174 36.5324 47.335 35.6607C47.5748 35.16 47.8225 34.4643 47.8855 34.1147C47.9612 33.6948 48 30.2244 48 23.8818C48 13.4161 48.0126 13.6504 47.3857 12.4985C46.9812 11.7553 45.9999 10.8817 45.2457 10.5935C44.5476 10.3268 43.3481 10.2302 42.7109 10.3895Z" fill="#FF9A2F"/>
</svg>
