<svg width="14" height="12" viewBox="0 0 14 12" fill="none" xmlns="http://www.w3.org/2000/svg">
<path fill-rule="evenodd" clip-rule="evenodd" d="M0.25975 3.86325C0.25 4.26825 0.25 4.7265 0.25 5.25V6.75C0.25 8.871 0.25 9.93225 0.90925 10.5907C1.56775 11.25 2.629 11.25 4.75 11.25H9.25C11.371 11.25 12.4323 11.25 13.0907 10.5907C13.75 9.93225 13.75 8.871 13.75 6.75V5.25C13.75 4.7265 13.75 4.2675 13.7402 3.86325L7.72825 7.203C7.50547 7.32672 7.25483 7.39165 7 7.39165C6.74517 7.39165 6.49453 7.32672 6.27175 7.203L0.25975 3.86325ZM0.43225 2.2725C0.49475 2.2875 0.5555 2.3115 0.6145 2.3445L7 5.892L13.3855 2.3445C13.445 2.312 13.5057 2.288 13.5677 2.2725C13.4703 1.917 13.3203 1.63875 13.0907 1.40925C12.4323 0.75 11.371 0.75 9.25 0.75H4.75C2.629 0.75 1.56775 0.75 0.90925 1.40925C0.679 1.63875 0.52975 1.917 0.43225 2.27175" fill="#F9FAFB"/>
</svg>
