<svg width="18" height="18" viewBox="0 0 18 18" fill="none" xmlns="http://www.w3.org/2000/svg">
<path d="M3.81224 8.80928C4.46103 9.87808 5.26908 10.8977 6.18612 11.8141C7.10236 12.731 8.1219 13.5393 9.19049 14.188L11.8739 11.3091L17.0625 14.2642C16.3095 15.6623 14.5034 17.4504 12.2088 16.9881C11.1245 16.7693 10.0544 16.4047 8.76046 15.6623C7.45802 14.9151 6.22829 13.9607 5.13572 12.8674C4.04233 11.7748 3.08493 10.542 2.33769 9.23956C1.59529 7.94558 1.23069 6.87551 1.01187 5.79117C0.549631 3.49661 2.33769 1.69056 3.73582 0.9375L6.69088 6.12612L3.81224 8.80928Z" fill="#F9FAFB"/>
</svg>
